# xmcd
#
# Track frame offsets: 
#        182
#        12860
#        29800
#        43437
#        57625
#        70185
#        81025
#        96597
#        114282
#        126902
#
# Disc length: 1866 seconds
#
# Revision: 2
# Processed by: cddbd v1.5.2PL0 Copyright (c) Steve Scherf et al.
# Submitted via: ExactAudioCopy v1.1
#
DISCID=9107480a
DTITLE=Desert Rose Band - Traditional
DYEAR=1993
DGENRE=Country
TTITLE0=Undying Love
TTITLE1=Once More
TTITLE2=The Price I Pay
TTITLE3=True Love
TTITLE4=Step On Out
TTITLE5=Time Between
TTITLE6=Our Songs
TTITLE7=Missing You
TTITLE8=Desert Rose
TTITLE9=Hard Times
EXTD=
EXTT0=
EXTT1=
EXTT2=
EXTT3=
EXTT4=
EXTT5=
EXTT6=
EXTT7=
EXTT8=
EXTT9=
PLAYORDER=
